# xmcd
#
# Track frame offsets:
#   150
#   15262
#   37429
#   62567
#   80729
#   105898
#   132354
#   149536
#   163694
#   181597
#   206346
#   222870
#   247629
#   272178
#   299914
#   316793
#   338616
#
# Disc length: 4648 seconds
#
# Revision: 0
# Processed by: cddbd v1.5.2PL0 Copyright (c) Steve Scherf et al.
# Submitted via: uFREEDB ActiveX Control 1.5
#
DISCID=f2122611
DTITLE=LUIZ MARENCO - IDENTIDADE AO VIVO
DYEAR=1900
DGENRE=Data
TTITLE0=DESTINOS
TTITLE1=OS DA ULTIMA TROPA
TTITLE2=OS SILENCIOS DAS JANELAS DO POVOADO
TTITLE3=FUNDO DE CAMPO
TTITLE4=DA BOCA PRA FORA
TTITLE5=ESTRELA D ALVA
TTITLE6=BAILONGO DO MATO GRANDE
TTITLE7=VASSOURA DE GUANXUMA
TTITLE8=CHARLA DE DOMADOR
TTITLE9=ESPERA
TTITLE10=MEU RANCHO
TTITLE11=A MODA DE MARTIN FIERRO
TTITLE12=PERFIL DE ESTRADA E TEMPO
TTITLE13=RESSABIOS
TTITLE14=ASSIM SE VAI P A TRES CRUZES
TTITLE15=CANTADOR DE CAMPANHA
TTITLE16=HINO DO RIO GRANDE
EXTD=
EXTT0=
EXTT1=
EXTT2=
EXTT3=
EXTT4=
EXTT5=
EXTT6=
EXTT7=
EXTT8=
EXTT9=
EXTT10=
EXTT11=
EXTT12=
EXTT13=
EXTT14=
EXTT15=
EXTT16=
PLAYORDER=
